# xmcd CD database file
#
# Track frame offsets:
#	150
#	12461
#	38128
#	52926
#	66182
#	75308
#	92287
#	111296
#	120993
#	151037
#	163678
#	180817
#	196930
#	216074
#	230577
#	248804
#
# Disc length: 3508 seconds
#
# Revision: 0
# Processed by: cddbd v1.4PL0 Copyright (c) Steve Scherf et al.
# Submitted via: CDex 1.51
#
DISCID=b70db210
DTITLE=Bluesmatic - Bluesmatic
DYEAR=2003
DGENRE=Blues
TTITLE0=Shake Your Boogie
TTITLE1=Mustang Sally
TTITLE2=Next Time You See Me
TTITLE3=Messin' With The Kid
TTITLE4=Ain't Got You
TTITLE5=Too Much Fun
TTITLE6=Cold Cold Feelin'
TTITLE7=Long Time Baby
TTITLE8=Do You Feel It - Willie and The Hand Jive
TTITLE9=Shake
TTITLE10=Buried Alive In The Blues
TTITLE11=Bye Bye
TTITLE12=A Little More Time
TTITLE13=Let The Good Times Roll
TTITLE14=Born In Chicago
TTITLE15=Nobody Loves Me Like My baby
EXTD=YEAR: 2003
EXTT0=
EXTT1=
EXTT2=
EXTT3=
EXTT4=
EXTT5=
EXTT6=
EXTT7=
EXTT8=
EXTT9=
EXTT10=
EXTT11=
EXTT12=
EXTT13=
EXTT14=
EXTT15=
PLAYORDER=
